<svg width="334" height="297" viewBox="0 0 334 297" fill="none" xmlns="http://www.w3.org/2000/svg">
<path d="M120.611 0C103.273 0 88.8927 11.8916 84.7757 27.9598C84.3118 27.9598 83.9639 27.8438 83.5 27.8438C63.0309 27.8438 46.3889 44.492 46.3889 64.9688C46.3889 67.7531 46.7368 70.4795 47.3746 73.0898C30.4427 80.0508 18.5556 96.641 18.5556 116.016C18.5556 123.325 20.4111 130.112 23.3684 136.26C9.45174 144.265 0 159.115 0 176.344C0 195.66 11.8292 212.251 28.6451 219.212C28.1233 221.88 27.8333 224.606 27.8333 227.391C27.8333 250.478 46.5049 269.156 69.5833 269.156C71.9608 269.156 74.2802 268.866 76.5417 268.46C82.1083 284.992 97.5326 297 115.972 297C139.051 297 157.722 278.321 157.722 255.234V37.125C157.722 16.6482 141.08 0 120.611 0ZM334 176.344C334 159.115 324.548 144.265 310.632 136.26C313.647 130.112 315.444 123.325 315.444 116.016C315.444 96.641 303.557 80.0508 286.625 73.0898C287.205 70.4795 287.611 67.7531 287.611 64.9688C287.611 44.492 270.969 27.8438 250.5 27.8438C250.036 27.8438 249.63 27.9598 249.224 27.9598C245.107 11.8916 230.727 0 213.389 0C192.92 0 176.278 16.5902 176.278 37.125V255.234C176.278 278.321 194.949 297 218.028 297C236.467 297 251.892 284.992 257.458 268.46C259.72 268.866 262.039 269.156 264.417 269.156C287.495 269.156 306.167 250.478 306.167 227.391C306.167 224.606 305.877 221.88 305.355 219.212C322.171 212.251 334 195.66 334 176.344Z" fill="#FDEFF9"/>
</svg>
