<svg width="385" height="127" viewBox="0 0 385 127" fill="none" xmlns="http://www.w3.org/2000/svg">
<path d="M3 68.9749H0V62.9749H3V68.9749ZM96.6436 67.6173L93.6919 68.1537L96.6436 67.6173ZM110.499 122.078L107.532 121.633L110.499 122.078ZM106.553 122.139L109.505 121.602L106.553 122.139ZM127.974 5.67848L125.007 5.23309L127.974 5.67848ZM149.755 81.5881L147.248 79.9402L149.755 81.5881ZM146.118 80.8604L143.17 81.4167L146.118 80.8604ZM159.425 66.8763L161.932 68.5242L159.425 66.8763ZM175.44 65.0268L172.889 63.449L175.44 65.0268ZM187.75 50.2203L190.104 48.3604L187.75 50.2203ZM184.48 50.4084L181.929 48.8305L184.48 50.4084ZM199.599 65.2149L197.245 67.0748L199.599 65.2149ZM258.607 67.6173L255.655 68.1537L258.607 67.6173ZM272.462 122.078L269.495 121.633L272.462 122.078ZM268.516 122.139L265.564 122.675L268.516 122.139ZM293.88 5.60455L296.828 5.04824L293.88 5.60455ZM311.718 81.5881L314.225 83.236L311.718 81.5881ZM308.081 80.8604L305.133 81.4167L308.081 80.8604ZM321.388 66.8764L318.881 65.2285L321.388 66.8764ZM337.403 65.0268L339.955 66.6047L337.403 65.0268ZM349.714 50.2203L347.36 52.0803L349.714 50.2203ZM346.443 50.4084L348.995 51.9862L346.443 50.4084ZM385 68.9749H363.131V62.9749H385V68.9749ZM359.208 67.0748L347.36 52.0803L352.067 48.3604L363.916 63.3549L359.208 67.0748ZM348.995 51.9862L339.955 66.6047L334.852 63.449L343.892 48.8305L348.995 51.9862ZM335.702 68.9749H323.059V62.9749H335.702V68.9749ZM323.895 68.5242L314.225 83.236L309.211 79.9402L318.881 65.2285L323.895 68.5242ZM305.133 81.4167L290.932 6.16085L296.828 5.04824L311.029 80.3041L305.133 81.4167ZM292.903 6.12389L275.428 122.524L269.495 121.633L286.97 5.23309L292.903 6.12389ZM265.564 122.675L255.655 68.1537L261.558 67.0808L271.468 121.602L265.564 122.675ZM256.639 68.9749H201.168V62.9749H256.639V68.9749ZM197.245 67.0748L185.397 52.0803L190.104 48.3604L201.953 63.3549L197.245 67.0748ZM187.032 51.9862L177.992 66.6047L172.889 63.449L181.929 48.8305L187.032 51.9862ZM173.739 68.9749H161.096V62.9749H173.739V68.9749ZM161.932 68.5242L152.262 83.236L147.248 79.9402L156.918 65.2285L161.932 68.5242ZM143.17 81.4167L128.969 6.16085L134.865 5.04824L149.066 80.3041L143.17 81.4167ZM130.94 6.12388L113.465 122.524L107.532 121.633L125.007 5.23309L130.94 6.12388ZM103.601 122.675L93.6919 68.1537L99.5952 67.0808L109.505 121.602L103.601 122.675ZM94.6758 68.9749H3V62.9749H94.6758V68.9749ZM93.6919 68.1537C93.7784 68.6293 94.1925 68.9749 94.6758 68.9749V62.9749C97.0924 62.9749 99.1631 64.7032 99.5952 67.0808L93.6919 68.1537ZM113.465 122.524C112.626 128.113 104.612 128.236 103.601 122.675L109.505 121.602C109.473 121.427 109.346 121.173 109.098 120.986C108.883 120.824 108.667 120.779 108.505 120.781C108.344 120.784 108.129 120.836 107.919 121.004C107.677 121.199 107.558 121.456 107.532 121.633L113.465 122.524ZM128.969 6.16085C129.002 6.33635 129.13 6.58853 129.377 6.7733C129.592 6.93371 129.808 6.97828 129.97 6.97524C130.132 6.9722 130.346 6.91958 130.555 6.75123C130.795 6.55729 130.914 6.3005 130.94 6.12388L125.007 5.23309C125.843 -0.337048 133.82 -0.486608 134.865 5.04824L128.969 6.16085ZM152.262 83.236C149.792 86.9934 144.004 85.8352 143.17 81.4167L149.066 80.3041C148.899 79.4204 147.742 79.1888 147.248 79.9402L152.262 83.236ZM161.096 68.9749C161.433 68.9749 161.747 68.8055 161.932 68.5242L156.918 65.2285C157.843 63.8219 159.413 62.9749 161.096 62.9749V68.9749ZM177.992 66.6047C177.081 68.0781 175.472 68.9749 173.739 68.9749V62.9749C173.393 62.9749 173.071 63.1543 172.889 63.449L177.992 66.6047ZM185.397 52.0803C185.827 52.6246 186.667 52.5763 187.032 51.9862L181.929 48.8305C183.753 45.8804 187.954 45.6388 190.104 48.3604L185.397 52.0803ZM201.168 68.9749C199.639 68.9749 198.193 68.2749 197.245 67.0748L201.953 63.3549C201.763 63.1149 201.474 62.9749 201.168 62.9749V68.9749ZM255.655 68.1537C255.742 68.6293 256.156 68.9749 256.639 68.9749V62.9749C259.056 62.9749 261.126 64.7032 261.558 67.0808L255.655 68.1537ZM275.428 122.524C274.589 128.113 266.575 128.236 265.564 122.675L271.468 121.602C271.436 121.427 271.309 121.173 271.061 120.986C270.846 120.824 270.63 120.779 270.468 120.781C270.307 120.784 270.092 120.836 269.882 121.004C269.64 121.199 269.521 121.456 269.495 121.633L275.428 122.524ZM290.932 6.16085C290.965 6.33635 291.093 6.58853 291.341 6.77331C291.556 6.93372 291.771 6.97828 291.933 6.97524C292.095 6.97221 292.309 6.91959 292.518 6.75123C292.759 6.5573 292.877 6.3005 292.903 6.12389L286.97 5.23309C287.806 -0.33701 295.783 -0.486641 296.828 5.04824L290.932 6.16085ZM314.225 83.236C311.755 86.9934 305.967 85.8352 305.133 81.4167L311.029 80.3041C310.862 79.4204 309.705 79.1887 309.211 79.9402L314.225 83.236ZM323.059 68.9749C323.396 68.9749 323.71 68.8055 323.895 68.5242L318.881 65.2285C319.806 63.8219 321.376 62.9749 323.059 62.9749V68.9749ZM339.955 66.6047C339.044 68.0781 337.435 68.9749 335.702 68.9749V62.9749C335.356 62.9749 335.034 63.1543 334.852 63.449L339.955 66.6047ZM347.36 52.0803C347.79 52.6246 348.63 52.5763 348.995 51.9862L343.892 48.8305C345.716 45.8803 349.917 45.6388 352.067 48.3604L347.36 52.0803ZM363.131 68.9749C361.602 68.9749 360.156 68.2749 359.208 67.0748L363.916 63.3549C363.726 63.1149 363.437 62.9749 363.131 62.9749V68.9749Z" fill="#D8ACF7"/>
</svg>
