<svg width="6347" height="412" viewBox="0 0 6347 412" fill="none" xmlns="http://www.w3.org/2000/svg">
<ellipse cx="36.127" cy="34.9545" rx="36.127" ry="34.9545" transform="matrix(1 -1.4418e-09 1.48937e-09 -1 1492.91 79.8945)" fill="#F979F8"/>
<ellipse cx="36.127" cy="34.9545" rx="36.127" ry="34.9545" transform="matrix(1 -1.4418e-09 1.48937e-09 -1 1576.51 69.9082)" fill="#F979F8"/>
<ellipse cx="36.127" cy="34.9545" rx="36.127" ry="34.9545" transform="matrix(1 -1.4418e-09 1.48937e-09 -1 1660.12 79.8945)" fill="#F979F8"/>
<ellipse cx="36.127" cy="34.9545" rx="36.127" ry="34.9545" transform="matrix(1 -1.4418e-09 1.48937e-09 -1 1743.73 142.314)" fill="#F979F8"/>
<ellipse cx="36.127" cy="34.9545" rx="36.127" ry="34.9545" transform="matrix(1 -1.4418e-09 1.48937e-09 -1 1409.3 142.314)" fill="#F979F8"/>
<ellipse cx="36.127" cy="34.9545" rx="36.127" ry="34.9545" transform="matrix(1 -1.4418e-09 1.48937e-09 -1 1339.63 209.728)" fill="#F979F8"/>
<ellipse cx="36.127" cy="34.9545" rx="36.127" ry="34.9545" transform="matrix(1 -1.4418e-09 1.48937e-09 -1 1813.4 209.728)" fill="#F979F8"/>
<ellipse cx="36.127" cy="34.9545" rx="36.127" ry="34.9545" transform="matrix(1 -1.4418e-09 1.48937e-09 -1 1883.09 277.141)" fill="#F979F8"/>
<ellipse cx="36.127" cy="34.9545" rx="36.127" ry="34.9545" transform="matrix(1 -1.4418e-09 1.48937e-09 -1 1269.95 277.141)" fill="#F979F8"/>
<ellipse cx="36.127" cy="34.9545" rx="36.127" ry="34.9545" transform="matrix(1 -1.4418e-09 1.48937e-09 -1 1200.28 344.553)" fill="#F979F8"/>
<ellipse cx="36.127" cy="34.9545" rx="36.127" ry="34.9545" transform="matrix(1 -1.4418e-09 1.48937e-09 -1 1130.61 411.966)" fill="#F979F8"/>
<ellipse cx="36.127" cy="34.9545" rx="36.127" ry="34.9545" transform="matrix(1 -1.4418e-09 1.48937e-09 -1 1047 411.966)" fill="#F979F8"/>
<ellipse cx="36.127" cy="34.9545" rx="36.127" ry="34.9545" transform="matrix(1 -1.4418e-09 1.48937e-09 -1 1938.81 344.553)" fill="#F979F8"/>
<ellipse cx="36.127" cy="34.9545" rx="36.127" ry="34.9545" transform="matrix(1 -1.4418e-09 1.48937e-09 -1 2008.5 411.966)" fill="#F979F8"/>
<ellipse cx="36.127" cy="34.9545" rx="36.127" ry="34.9545" transform="matrix(1 -1.4418e-09 1.48937e-09 -1 2092.11 411.966)" fill="#F979F8"/>
<ellipse cx="36.127" cy="34.9545" rx="36.127" ry="34.9545" transform="matrix(-1 1.4418e-09 -1.48937e-09 1 1718.45 332.105)" fill="#D8ACF7"/>
<ellipse cx="36.127" cy="34.9545" rx="36.127" ry="34.9545" transform="matrix(-1 1.4418e-09 -1.48937e-09 1 1634.86 342.091)" fill="#D8ACF7"/>
<ellipse cx="36.127" cy="34.9545" rx="36.127" ry="34.9545" transform="matrix(-1 1.4418e-09 -1.48937e-09 1 1551.24 332.105)" fill="#D8ACF7"/>
<ellipse cx="36.127" cy="34.9545" rx="36.127" ry="34.9545" transform="matrix(-1 1.4418e-09 -1.48937e-09 1 1467.63 269.686)" fill="#D8ACF7"/>
<ellipse cx="36.127" cy="34.9545" rx="36.127" ry="34.9545" transform="matrix(-1 1.4418e-09 -1.48937e-09 1 1802.06 269.686)" fill="#D8ACF7"/>
<ellipse cx="36.127" cy="34.9545" rx="36.127" ry="34.9545" transform="matrix(-1 1.4418e-09 -1.48937e-09 1 1871.73 202.272)" fill="#D8ACF7"/>
<ellipse cx="36.127" cy="34.9545" rx="36.127" ry="34.9545" transform="matrix(-1 1.4418e-09 -1.48937e-09 1 1397.96 202.272)" fill="#D8ACF7"/>
<ellipse cx="36.127" cy="34.9545" rx="36.127" ry="34.9545" transform="matrix(-1 1.4418e-09 -1.48937e-09 1 1328.28 134.859)" fill="#D8ACF7"/>
<ellipse cx="36.127" cy="34.9545" rx="36.127" ry="34.9545" transform="matrix(-1 1.4418e-09 -1.48937e-09 1 1941.42 134.859)" fill="#D8ACF7"/>
<ellipse cx="36.127" cy="34.9545" rx="36.127" ry="34.9545" transform="matrix(-1 1.4418e-09 -1.48937e-09 1 2011.08 67.4482)" fill="#D8ACF7"/>
<ellipse cx="36.127" cy="34.9545" rx="36.127" ry="34.9545" transform="matrix(-1 1.4418e-09 -1.48937e-09 1 2080.75 0.0341797)" fill="#D8ACF7"/>
<ellipse cx="36.127" cy="34.9545" rx="36.127" ry="34.9545" transform="matrix(-1 1.4418e-09 -1.48937e-09 1 2164.36 0.0341797)" fill="#D8ACF7"/>
<ellipse cx="36.127" cy="34.9545" rx="36.127" ry="34.9545" transform="matrix(-1 1.4418e-09 -1.48937e-09 1 1272.55 67.4473)" fill="#D8ACF7"/>
<ellipse cx="36.127" cy="34.9545" rx="36.127" ry="34.9545" transform="matrix(-1 1.4418e-09 -1.48937e-09 1 1202.87 0.0341797)" fill="#D8ACF7"/>
<ellipse cx="36.127" cy="34.9545" rx="36.127" ry="34.9545" transform="matrix(-1 1.4418e-09 -1.48937e-09 1 1119.25 0.0341797)" fill="#D8ACF7"/>
<ellipse cx="36.127" cy="34.9545" rx="36.127" ry="34.9545" transform="matrix(1 -1.4418e-09 1.48937e-09 -1 445.914 79.8945)" fill="#F979F8"/>
<ellipse cx="36.127" cy="34.9545" rx="36.127" ry="34.9545" transform="matrix(1 -1.4418e-09 1.48937e-09 -1 529.508 69.9082)" fill="#F979F8"/>
<ellipse cx="36.127" cy="34.9545" rx="36.127" ry="34.9545" transform="matrix(1 -1.4418e-09 1.48937e-09 -1 613.12 79.8945)" fill="#F979F8"/>
<ellipse cx="36.127" cy="34.9545" rx="36.127" ry="34.9545" transform="matrix(1 -1.4418e-09 1.48937e-09 -1 696.732 142.314)" fill="#F979F8"/>
<ellipse cx="36.127" cy="34.9545" rx="36.127" ry="34.9545" transform="matrix(1 -1.4418e-09 1.48937e-09 -1 362.302 142.314)" fill="#F979F8"/>
<ellipse cx="36.127" cy="34.9545" rx="36.127" ry="34.9545" transform="matrix(1 -1.4418e-09 1.48937e-09 -1 292.633 209.728)" fill="#F979F8"/>
<ellipse cx="36.127" cy="34.9545" rx="36.127" ry="34.9545" transform="matrix(1 -1.4418e-09 1.48937e-09 -1 766.402 209.728)" fill="#F979F8"/>
<ellipse cx="36.127" cy="34.9545" rx="36.127" ry="34.9545" transform="matrix(1 -1.4418e-09 1.48937e-09 -1 836.086 277.141)" fill="#F979F8"/>
<ellipse cx="36.127" cy="34.9545" rx="36.127" ry="34.9545" transform="matrix(1 -1.4418e-09 1.48937e-09 -1 222.948 277.141)" fill="#F979F8"/>
<ellipse cx="36.127" cy="34.9545" rx="36.127" ry="34.9545" transform="matrix(1 -1.4418e-09 1.48937e-09 -1 153.28 344.553)" fill="#F979F8"/>
<ellipse cx="36.127" cy="34.9545" rx="36.127" ry="34.9545" transform="matrix(1 -1.4418e-09 1.48937e-09 -1 83.6118 411.966)" fill="#F979F8"/>
<ellipse cx="36.127" cy="34.9545" rx="36.127" ry="34.9545" transform="matrix(1 -1.4418e-09 1.48937e-09 -1 0 411.966)" fill="#F979F8"/>
<ellipse cx="36.127" cy="34.9545" rx="36.127" ry="34.9545" transform="matrix(1 -1.4418e-09 1.48937e-09 -1 891.812 344.553)" fill="#F979F8"/>
<ellipse cx="36.127" cy="34.9545" rx="36.127" ry="34.9545" transform="matrix(1 -1.4418e-09 1.48937e-09 -1 961.497 411.966)" fill="#F979F8"/>
<ellipse cx="36.127" cy="34.9545" rx="36.127" ry="34.9545" transform="matrix(1 -1.4418e-09 1.48937e-09 -1 1045.11 411.966)" fill="#F979F8"/>
<ellipse cx="36.127" cy="34.9545" rx="36.127" ry="34.9545" transform="matrix(-1 1.4418e-09 -1.48937e-09 1 671.45 332.105)" fill="#D8ACF7"/>
<ellipse cx="36.127" cy="34.9545" rx="36.127" ry="34.9545" transform="matrix(-1 1.4418e-09 -1.48937e-09 1 587.856 342.091)" fill="#D8ACF7"/>
<ellipse cx="36.127" cy="34.9545" rx="36.127" ry="34.9545" transform="matrix(-1 1.4418e-09 -1.48937e-09 1 504.245 332.105)" fill="#D8ACF7"/>
<ellipse cx="36.127" cy="34.9545" rx="36.127" ry="34.9545" transform="matrix(-1 1.4418e-09 -1.48937e-09 1 420.631 269.686)" fill="#D8ACF7"/>
<ellipse cx="36.127" cy="34.9545" rx="36.127" ry="34.9545" transform="matrix(-1 1.4418e-09 -1.48937e-09 1 755.061 269.686)" fill="#D8ACF7"/>
<ellipse cx="36.127" cy="34.9545" rx="36.127" ry="34.9545" transform="matrix(-1 1.4418e-09 -1.48937e-09 1 824.731 202.272)" fill="#D8ACF7"/>
<ellipse cx="36.127" cy="34.9545" rx="36.127" ry="34.9545" transform="matrix(-1 1.4418e-09 -1.48937e-09 1 350.962 202.272)" fill="#D8ACF7"/>
<ellipse cx="36.127" cy="34.9545" rx="36.127" ry="34.9545" transform="matrix(-1 1.4418e-09 -1.48937e-09 1 281.278 134.859)" fill="#D8ACF7"/>
<ellipse cx="36.127" cy="34.9545" rx="36.127" ry="34.9545" transform="matrix(-1 1.4418e-09 -1.48937e-09 1 894.417 134.859)" fill="#D8ACF7"/>
<ellipse cx="36.127" cy="34.9545" rx="36.127" ry="34.9545" transform="matrix(-1 1.4418e-09 -1.48937e-09 1 964.084 67.4482)" fill="#D8ACF7"/>
<ellipse cx="36.127" cy="34.9545" rx="36.127" ry="34.9545" transform="matrix(-1 1.4418e-09 -1.48937e-09 1 1033.75 0.0341797)" fill="#D8ACF7"/>
<ellipse cx="36.127" cy="34.9545" rx="36.127" ry="34.9545" transform="matrix(-1 1.4418e-09 -1.48937e-09 1 1117.36 0.0341797)" fill="#D8ACF7"/>
<ellipse cx="36.127" cy="34.9545" rx="36.127" ry="34.9545" transform="matrix(-1 1.4418e-09 -1.48937e-09 1 225.553 67.4473)" fill="#D8ACF7"/>
<ellipse cx="36.127" cy="34.9545" rx="36.127" ry="34.9545" transform="matrix(-1 1.4418e-09 -1.48937e-09 1 155.868 0.0341797)" fill="#D8ACF7"/>
<ellipse cx="36.127" cy="34.9545" rx="36.127" ry="34.9545" transform="matrix(-1 1.4418e-09 -1.48937e-09 1 72.2539 0.0341797)" fill="#D8ACF7"/>
<ellipse cx="36.127" cy="34.9545" rx="36.127" ry="34.9545" transform="matrix(1 -1.4418e-09 1.48937e-09 -1 2538.57 79.8945)" fill="#F979F8"/>
<ellipse cx="36.127" cy="34.9545" rx="36.127" ry="34.9545" transform="matrix(1 -1.4418e-09 1.48937e-09 -1 2622.17 69.9082)" fill="#F979F8"/>
<ellipse cx="36.127" cy="34.9545" rx="36.127" ry="34.9545" transform="matrix(1 -1.4418e-09 1.48937e-09 -1 2705.78 79.8945)" fill="#F979F8"/>
<ellipse cx="36.127" cy="34.9545" rx="36.127" ry="34.9545" transform="matrix(1 -1.4418e-09 1.48937e-09 -1 2789.39 142.314)" fill="#F979F8"/>
<ellipse cx="36.127" cy="34.9545" rx="36.127" ry="34.9545" transform="matrix(1 -1.4418e-09 1.48937e-09 -1 2454.96 142.314)" fill="#F979F8"/>
<ellipse cx="36.127" cy="34.9545" rx="36.127" ry="34.9545" transform="matrix(1 -1.4418e-09 1.48937e-09 -1 2385.29 209.728)" fill="#F979F8"/>
<ellipse cx="36.127" cy="34.9545" rx="36.127" ry="34.9545" transform="matrix(1 -1.4418e-09 1.48937e-09 -1 2859.06 209.728)" fill="#F979F8"/>
<ellipse cx="36.127" cy="34.9545" rx="36.127" ry="34.9545" transform="matrix(1 -1.4418e-09 1.48937e-09 -1 2928.75 277.141)" fill="#F979F8"/>
<ellipse cx="36.127" cy="34.9545" rx="36.127" ry="34.9545" transform="matrix(1 -1.4418e-09 1.48937e-09 -1 2315.61 277.141)" fill="#F979F8"/>
<ellipse cx="36.127" cy="34.9545" rx="36.127" ry="34.9545" transform="matrix(1 -1.4418e-09 1.48937e-09 -1 2245.94 344.553)" fill="#F979F8"/>
<ellipse cx="36.127" cy="34.9545" rx="36.127" ry="34.9545" transform="matrix(1 -1.4418e-09 1.48937e-09 -1 2176.27 411.966)" fill="#F979F8"/>
<ellipse cx="36.127" cy="34.9545" rx="36.127" ry="34.9545" transform="matrix(1 -1.4418e-09 1.48937e-09 -1 2092.66 411.966)" fill="#F979F8"/>
<ellipse cx="36.127" cy="34.9545" rx="36.127" ry="34.9545" transform="matrix(1 -1.4418e-09 1.48937e-09 -1 2984.47 344.553)" fill="#F979F8"/>
<ellipse cx="36.127" cy="34.9545" rx="36.127" ry="34.9545" transform="matrix(1 -1.4418e-09 1.48937e-09 -1 3054.16 411.966)" fill="#F979F8"/>
<ellipse cx="36.127" cy="34.9545" rx="36.127" ry="34.9545" transform="matrix(1 -1.4418e-09 1.48937e-09 -1 3137.77 411.966)" fill="#F979F8"/>
<ellipse cx="36.127" cy="34.9545" rx="36.127" ry="34.9545" transform="matrix(-1 1.4418e-09 -1.48937e-09 1 2764.11 332.105)" fill="#D8ACF7"/>
<ellipse cx="36.127" cy="34.9545" rx="36.127" ry="34.9545" transform="matrix(-1 1.4418e-09 -1.48937e-09 1 2680.52 342.092)" fill="#D8ACF7"/>
<ellipse cx="36.127" cy="34.9545" rx="36.127" ry="34.9545" transform="matrix(-1 1.4418e-09 -1.48937e-09 1 2596.9 332.105)" fill="#D8ACF7"/>
<ellipse cx="36.127" cy="34.9545" rx="36.127" ry="34.9545" transform="matrix(-1 1.4418e-09 -1.48937e-09 1 2513.29 269.686)" fill="#D8ACF7"/>
<ellipse cx="36.127" cy="34.9545" rx="36.127" ry="34.9545" transform="matrix(-1 1.4418e-09 -1.48937e-09 1 2847.72 269.686)" fill="#D8ACF7"/>
<ellipse cx="36.127" cy="34.9545" rx="36.127" ry="34.9545" transform="matrix(-1 1.4418e-09 -1.48937e-09 1 2917.39 202.272)" fill="#D8ACF7"/>
<ellipse cx="36.127" cy="34.9545" rx="36.127" ry="34.9545" transform="matrix(-1 1.4418e-09 -1.48937e-09 1 2443.62 202.272)" fill="#D8ACF7"/>
<ellipse cx="36.127" cy="34.9545" rx="36.127" ry="34.9545" transform="matrix(-1 1.4418e-09 -1.48937e-09 1 2373.94 134.858)" fill="#D8ACF7"/>
<ellipse cx="36.127" cy="34.9545" rx="36.127" ry="34.9545" transform="matrix(-1 1.4418e-09 -1.48937e-09 1 2987.08 134.858)" fill="#D8ACF7"/>
<ellipse cx="36.127" cy="34.9545" rx="36.127" ry="34.9545" transform="matrix(-1 1.4418e-09 -1.48937e-09 1 3056.74 67.4473)" fill="#D8ACF7"/>
<ellipse cx="36.127" cy="34.9545" rx="36.127" ry="34.9545" transform="matrix(-1 1.4418e-09 -1.48937e-09 1 3126.41 0.0341797)" fill="#D8ACF7"/>
<ellipse cx="36.127" cy="34.9545" rx="36.127" ry="34.9545" transform="matrix(-1 1.4418e-09 -1.48937e-09 1 3210.02 0.0341797)" fill="#D8ACF7"/>
<ellipse cx="36.127" cy="34.9545" rx="36.127" ry="34.9545" transform="matrix(-1 1.4418e-09 -1.48937e-09 1 2318.21 67.4473)" fill="#D8ACF7"/>
<ellipse cx="36.127" cy="34.9545" rx="36.127" ry="34.9545" transform="matrix(-1 1.4418e-09 -1.48937e-09 1 2248.53 0.0341797)" fill="#D8ACF7"/>
<ellipse cx="36.127" cy="34.9545" rx="36.127" ry="34.9545" transform="matrix(-1 1.4418e-09 -1.48937e-09 1 2164.91 0.0341797)" fill="#D8ACF7"/>
<ellipse cx="36.127" cy="34.9545" rx="36.127" ry="34.9545" transform="matrix(1 -1.4418e-09 1.48937e-09 -1 3584.23 79.8945)" fill="#F979F8"/>
<ellipse cx="36.127" cy="34.9545" rx="36.127" ry="34.9545" transform="matrix(1 -1.4418e-09 1.48937e-09 -1 3667.83 69.9082)" fill="#F979F8"/>
<ellipse cx="36.127" cy="34.9545" rx="36.127" ry="34.9545" transform="matrix(1 -1.4418e-09 1.48937e-09 -1 3751.44 79.8945)" fill="#F979F8"/>
<ellipse cx="36.127" cy="34.9545" rx="36.127" ry="34.9545" transform="matrix(1 -1.4418e-09 1.48937e-09 -1 3835.05 142.314)" fill="#F979F8"/>
<ellipse cx="36.127" cy="34.9545" rx="36.127" ry="34.9545" transform="matrix(1 -1.4418e-09 1.48937e-09 -1 3500.62 142.314)" fill="#F979F8"/>
<ellipse cx="36.127" cy="34.9545" rx="36.127" ry="34.9545" transform="matrix(1 -1.4418e-09 1.48937e-09 -1 3430.95 209.728)" fill="#F979F8"/>
<ellipse cx="36.127" cy="34.9545" rx="36.127" ry="34.9545" transform="matrix(1 -1.4418e-09 1.48937e-09 -1 3904.72 209.728)" fill="#F979F8"/>
<ellipse cx="36.127" cy="34.9545" rx="36.127" ry="34.9545" transform="matrix(1 -1.4418e-09 1.48937e-09 -1 3974.4 277.141)" fill="#F979F8"/>
<ellipse cx="36.127" cy="34.9545" rx="36.127" ry="34.9545" transform="matrix(1 -1.4418e-09 1.48937e-09 -1 3361.27 277.141)" fill="#F979F8"/>
<ellipse cx="36.127" cy="34.9545" rx="36.127" ry="34.9545" transform="matrix(1 -1.4418e-09 1.48937e-09 -1 3291.6 344.553)" fill="#F979F8"/>
<ellipse cx="36.127" cy="34.9545" rx="36.127" ry="34.9545" transform="matrix(1 -1.4418e-09 1.48937e-09 -1 3221.93 411.966)" fill="#F979F8"/>
<ellipse cx="36.127" cy="34.9545" rx="36.127" ry="34.9545" transform="matrix(1 -1.4418e-09 1.48937e-09 -1 3138.32 411.966)" fill="#F979F8"/>
<ellipse cx="36.127" cy="34.9545" rx="36.127" ry="34.9545" transform="matrix(1 -1.4418e-09 1.48937e-09 -1 4030.13 344.553)" fill="#F979F8"/>
<ellipse cx="36.127" cy="34.9545" rx="36.127" ry="34.9545" transform="matrix(1 -1.4418e-09 1.48937e-09 -1 4099.81 411.966)" fill="#F979F8"/>
<ellipse cx="36.127" cy="34.9545" rx="36.127" ry="34.9545" transform="matrix(1 -1.4418e-09 1.48937e-09 -1 4183.43 411.966)" fill="#F979F8"/>
<ellipse cx="36.127" cy="34.9545" rx="36.127" ry="34.9545" transform="matrix(-1 1.4418e-09 -1.48937e-09 1 3809.77 332.105)" fill="#D8ACF7"/>
<ellipse cx="36.127" cy="34.9545" rx="36.127" ry="34.9545" transform="matrix(-1 1.4418e-09 -1.48937e-09 1 3726.17 342.092)" fill="#D8ACF7"/>
<ellipse cx="36.127" cy="34.9545" rx="36.127" ry="34.9545" transform="matrix(-1 1.4418e-09 -1.48937e-09 1 3642.56 332.105)" fill="#D8ACF7"/>
<ellipse cx="36.127" cy="34.9545" rx="36.127" ry="34.9545" transform="matrix(-1 1.4418e-09 -1.48937e-09 1 3558.95 269.686)" fill="#D8ACF7"/>
<ellipse cx="36.127" cy="34.9545" rx="36.127" ry="34.9545" transform="matrix(-1 1.4418e-09 -1.48937e-09 1 3893.38 269.686)" fill="#D8ACF7"/>
<ellipse cx="36.127" cy="34.9545" rx="36.127" ry="34.9545" transform="matrix(-1 1.4418e-09 -1.48937e-09 1 3963.05 202.272)" fill="#D8ACF7"/>
<ellipse cx="36.127" cy="34.9545" rx="36.127" ry="34.9545" transform="matrix(-1 1.4418e-09 -1.48937e-09 1 3489.28 202.272)" fill="#D8ACF7"/>
<ellipse cx="36.127" cy="34.9545" rx="36.127" ry="34.9545" transform="matrix(-1 1.4418e-09 -1.48937e-09 1 3419.6 134.858)" fill="#D8ACF7"/>
<ellipse cx="36.127" cy="34.9545" rx="36.127" ry="34.9545" transform="matrix(-1 1.4418e-09 -1.48937e-09 1 4032.73 134.858)" fill="#D8ACF7"/>
<ellipse cx="36.127" cy="34.9545" rx="36.127" ry="34.9545" transform="matrix(-1 1.4418e-09 -1.48937e-09 1 4102.4 67.4473)" fill="#D8ACF7"/>
<ellipse cx="36.127" cy="34.9545" rx="36.127" ry="34.9545" transform="matrix(-1 1.4418e-09 -1.48937e-09 1 4172.07 0.0341797)" fill="#D8ACF7"/>
<ellipse cx="36.127" cy="34.9545" rx="36.127" ry="34.9545" transform="matrix(-1 1.4418e-09 -1.48937e-09 1 4255.68 0.0341797)" fill="#D8ACF7"/>
<ellipse cx="36.127" cy="34.9545" rx="36.127" ry="34.9545" transform="matrix(-1 1.4418e-09 -1.48937e-09 1 3363.87 67.4473)" fill="#D8ACF7"/>
<ellipse cx="36.127" cy="34.9545" rx="36.127" ry="34.9545" transform="matrix(-1 1.4418e-09 -1.48937e-09 1 3294.18 0.0341797)" fill="#D8ACF7"/>
<ellipse cx="36.127" cy="34.9545" rx="36.127" ry="34.9545" transform="matrix(-1 1.4418e-09 -1.48937e-09 1 3210.57 0.0341797)" fill="#D8ACF7"/>
<ellipse cx="36.127" cy="34.9545" rx="36.127" ry="34.9545" transform="matrix(1 -1.4418e-09 1.48937e-09 -1 4629.89 79.8945)" fill="#F979F8"/>
<ellipse cx="36.127" cy="34.9545" rx="36.127" ry="34.9545" transform="matrix(1 -1.4418e-09 1.48937e-09 -1 4713.49 69.9082)" fill="#F979F8"/>
<ellipse cx="36.127" cy="34.9545" rx="36.127" ry="34.9545" transform="matrix(1 -1.4418e-09 1.48937e-09 -1 4797.1 79.8945)" fill="#F979F8"/>
<ellipse cx="36.127" cy="34.9545" rx="36.127" ry="34.9545" transform="matrix(1 -1.4418e-09 1.48937e-09 -1 4880.71 142.314)" fill="#F979F8"/>
<ellipse cx="36.127" cy="34.9545" rx="36.127" ry="34.9545" transform="matrix(1 -1.4418e-09 1.48937e-09 -1 4546.28 142.314)" fill="#F979F8"/>
<ellipse cx="36.127" cy="34.9545" rx="36.127" ry="34.9545" transform="matrix(1 -1.4418e-09 1.48937e-09 -1 4476.61 209.728)" fill="#F979F8"/>
<ellipse cx="36.127" cy="34.9545" rx="36.127" ry="34.9545" transform="matrix(1 -1.4418e-09 1.48937e-09 -1 4950.38 209.728)" fill="#F979F8"/>
<ellipse cx="36.127" cy="34.9545" rx="36.127" ry="34.9545" transform="matrix(1 -1.4418e-09 1.48937e-09 -1 5020.06 277.141)" fill="#F979F8"/>
<ellipse cx="36.127" cy="34.9545" rx="36.127" ry="34.9545" transform="matrix(1 -1.4418e-09 1.48937e-09 -1 4406.92 277.141)" fill="#F979F8"/>
<ellipse cx="36.127" cy="34.9545" rx="36.127" ry="34.9545" transform="matrix(1 -1.4418e-09 1.48937e-09 -1 4337.26 344.553)" fill="#F979F8"/>
<ellipse cx="36.127" cy="34.9545" rx="36.127" ry="34.9545" transform="matrix(1 -1.4418e-09 1.48937e-09 -1 4267.59 411.966)" fill="#F979F8"/>
<ellipse cx="36.127" cy="34.9545" rx="36.127" ry="34.9545" transform="matrix(1 -1.4418e-09 1.48937e-09 -1 4183.98 411.966)" fill="#F979F8"/>
<ellipse cx="36.127" cy="34.9545" rx="36.127" ry="34.9545" transform="matrix(1 -1.4418e-09 1.48937e-09 -1 5075.79 344.553)" fill="#F979F8"/>
<ellipse cx="36.127" cy="34.9545" rx="36.127" ry="34.9545" transform="matrix(1 -1.4418e-09 1.48937e-09 -1 5145.47 411.966)" fill="#F979F8"/>
<ellipse cx="36.127" cy="34.9545" rx="36.127" ry="34.9545" transform="matrix(1 -1.4418e-09 1.48937e-09 -1 5229.09 411.966)" fill="#F979F8"/>
<ellipse cx="36.127" cy="34.9545" rx="36.127" ry="34.9545" transform="matrix(-1 1.4418e-09 -1.48937e-09 1 4855.43 332.105)" fill="#D8ACF7"/>
<ellipse cx="36.127" cy="34.9545" rx="36.127" ry="34.9545" transform="matrix(-1 1.4418e-09 -1.48937e-09 1 4771.83 342.092)" fill="#D8ACF7"/>
<ellipse cx="36.127" cy="34.9545" rx="36.127" ry="34.9545" transform="matrix(-1 1.4418e-09 -1.48937e-09 1 4688.22 332.105)" fill="#D8ACF7"/>
<ellipse cx="36.127" cy="34.9545" rx="36.127" ry="34.9545" transform="matrix(-1 1.4418e-09 -1.48937e-09 1 4604.61 269.686)" fill="#D8ACF7"/>
<ellipse cx="36.127" cy="34.9545" rx="36.127" ry="34.9545" transform="matrix(-1 1.4418e-09 -1.48937e-09 1 4939.04 269.686)" fill="#D8ACF7"/>
<ellipse cx="36.127" cy="34.9545" rx="36.127" ry="34.9545" transform="matrix(-1 1.4418e-09 -1.48937e-09 1 5008.71 202.272)" fill="#D8ACF7"/>
<ellipse cx="36.127" cy="34.9545" rx="36.127" ry="34.9545" transform="matrix(-1 1.4418e-09 -1.48937e-09 1 4534.94 202.272)" fill="#D8ACF7"/>
<ellipse cx="36.127" cy="34.9545" rx="36.127" ry="34.9545" transform="matrix(-1 1.4418e-09 -1.48937e-09 1 4465.25 134.858)" fill="#D8ACF7"/>
<ellipse cx="36.127" cy="34.9545" rx="36.127" ry="34.9545" transform="matrix(-1 1.4418e-09 -1.48937e-09 1 5078.39 134.858)" fill="#D8ACF7"/>
<ellipse cx="36.127" cy="34.9545" rx="36.127" ry="34.9545" transform="matrix(-1 1.4418e-09 -1.48937e-09 1 5148.06 67.4473)" fill="#D8ACF7"/>
<ellipse cx="36.127" cy="34.9545" rx="36.127" ry="34.9545" transform="matrix(-1 1.4418e-09 -1.48937e-09 1 5217.73 0.0341797)" fill="#D8ACF7"/>
<ellipse cx="36.127" cy="34.9545" rx="36.127" ry="34.9545" transform="matrix(-1 1.4418e-09 -1.48937e-09 1 5301.34 0.0341797)" fill="#D8ACF7"/>
<ellipse cx="36.127" cy="34.9545" rx="36.127" ry="34.9545" transform="matrix(-1 1.4418e-09 -1.48937e-09 1 4409.53 67.4473)" fill="#D8ACF7"/>
<ellipse cx="36.127" cy="34.9545" rx="36.127" ry="34.9545" transform="matrix(-1 1.4418e-09 -1.48937e-09 1 4339.84 0.0341797)" fill="#D8ACF7"/>
<ellipse cx="36.127" cy="34.9545" rx="36.127" ry="34.9545" transform="matrix(-1 1.4418e-09 -1.48937e-09 1 4256.23 0.0341797)" fill="#D8ACF7"/>
<ellipse cx="36.127" cy="34.9545" rx="36.127" ry="34.9545" transform="matrix(1 -1.4418e-09 1.48937e-09 -1 5675.55 79.8945)" fill="#F979F8"/>
<ellipse cx="36.127" cy="34.9545" rx="36.127" ry="34.9545" transform="matrix(1 -1.4418e-09 1.48937e-09 -1 5759.14 69.9082)" fill="#F979F8"/>
<ellipse cx="36.127" cy="34.9545" rx="36.127" ry="34.9545" transform="matrix(1 -1.4418e-09 1.48937e-09 -1 5842.76 79.8945)" fill="#F979F8"/>
<ellipse cx="36.127" cy="34.9545" rx="36.127" ry="34.9545" transform="matrix(1 -1.4418e-09 1.48937e-09 -1 5926.37 142.314)" fill="#F979F8"/>
<ellipse cx="36.127" cy="34.9545" rx="36.127" ry="34.9545" transform="matrix(1 -1.4418e-09 1.48937e-09 -1 5591.94 142.314)" fill="#F979F8"/>
<ellipse cx="36.127" cy="34.9545" rx="36.127" ry="34.9545" transform="matrix(1 -1.4418e-09 1.48937e-09 -1 5522.27 209.728)" fill="#F979F8"/>
<ellipse cx="36.127" cy="34.9545" rx="36.127" ry="34.9545" transform="matrix(1 -1.4418e-09 1.48937e-09 -1 5996.04 209.728)" fill="#F979F8"/>
<ellipse cx="36.127" cy="34.9545" rx="36.127" ry="34.9545" transform="matrix(1 -1.4418e-09 1.48937e-09 -1 6065.72 277.141)" fill="#F979F8"/>
<ellipse cx="36.127" cy="34.9545" rx="36.127" ry="34.9545" transform="matrix(1 -1.4418e-09 1.48937e-09 -1 5452.58 277.141)" fill="#F979F8"/>
<ellipse cx="36.127" cy="34.9545" rx="36.127" ry="34.9545" transform="matrix(1 -1.4418e-09 1.48937e-09 -1 5382.92 344.553)" fill="#F979F8"/>
<ellipse cx="36.127" cy="34.9545" rx="36.127" ry="34.9545" transform="matrix(1 -1.4418e-09 1.48937e-09 -1 5313.25 411.966)" fill="#F979F8"/>
<ellipse cx="36.127" cy="34.9545" rx="36.127" ry="34.9545" transform="matrix(1 -1.4418e-09 1.48937e-09 -1 5229.64 411.966)" fill="#F979F8"/>
<ellipse cx="36.127" cy="34.9545" rx="36.127" ry="34.9545" transform="matrix(1 -1.4418e-09 1.48937e-09 -1 6121.45 344.553)" fill="#F979F8"/>
<ellipse cx="36.127" cy="34.9545" rx="36.127" ry="34.9545" transform="matrix(1 -1.4418e-09 1.48937e-09 -1 6191.13 411.966)" fill="#F979F8"/>
<ellipse cx="36.127" cy="34.9545" rx="36.127" ry="34.9545" transform="matrix(1 -1.4418e-09 1.48937e-09 -1 6274.75 411.966)" fill="#F979F8"/>
<ellipse cx="36.127" cy="34.9545" rx="36.127" ry="34.9545" transform="matrix(-1 1.4418e-09 -1.48937e-09 1 5901.09 332.105)" fill="#D8ACF7"/>
<ellipse cx="36.127" cy="34.9545" rx="36.127" ry="34.9545" transform="matrix(-1 1.4418e-09 -1.48937e-09 1 5817.49 342.092)" fill="#D8ACF7"/>
<ellipse cx="36.127" cy="34.9545" rx="36.127" ry="34.9545" transform="matrix(-1 1.4418e-09 -1.48937e-09 1 5733.88 332.105)" fill="#D8ACF7"/>
<ellipse cx="36.127" cy="34.9545" rx="36.127" ry="34.9545" transform="matrix(-1 1.4418e-09 -1.48937e-09 1 5650.27 269.686)" fill="#D8ACF7"/>
<ellipse cx="36.127" cy="34.9545" rx="36.127" ry="34.9545" transform="matrix(-1 1.4418e-09 -1.48937e-09 1 5984.7 269.686)" fill="#D8ACF7"/>
<ellipse cx="36.127" cy="34.9545" rx="36.127" ry="34.9545" transform="matrix(-1 1.4418e-09 -1.48937e-09 1 6054.37 202.272)" fill="#D8ACF7"/>
<ellipse cx="36.127" cy="34.9545" rx="36.127" ry="34.9545" transform="matrix(-1 1.4418e-09 -1.48937e-09 1 5580.6 202.272)" fill="#D8ACF7"/>
<ellipse cx="36.127" cy="34.9545" rx="36.127" ry="34.9545" transform="matrix(-1 1.4418e-09 -1.48937e-09 1 5510.91 134.858)" fill="#D8ACF7"/>
<ellipse cx="36.127" cy="34.9545" rx="36.127" ry="34.9545" transform="matrix(-1 1.4418e-09 -1.48937e-09 1 6124.05 134.858)" fill="#D8ACF7"/>
<ellipse cx="36.127" cy="34.9545" rx="36.127" ry="34.9545" transform="matrix(-1 1.4418e-09 -1.48937e-09 1 6193.72 67.4473)" fill="#D8ACF7"/>
<ellipse cx="36.127" cy="34.9545" rx="36.127" ry="34.9545" transform="matrix(-1 1.4418e-09 -1.48937e-09 1 6263.39 0.0341797)" fill="#D8ACF7"/>
<ellipse cx="36.127" cy="34.9545" rx="36.127" ry="34.9545" transform="matrix(-1 1.4418e-09 -1.48937e-09 1 6347 0.0341797)" fill="#D8ACF7"/>
<ellipse cx="36.127" cy="34.9545" rx="36.127" ry="34.9545" transform="matrix(-1 1.4418e-09 -1.48937e-09 1 5455.19 67.4473)" fill="#D8ACF7"/>
<ellipse cx="36.127" cy="34.9545" rx="36.127" ry="34.9545" transform="matrix(-1 1.4418e-09 -1.48937e-09 1 5385.5 0.0341797)" fill="#D8ACF7"/>
<ellipse cx="36.127" cy="34.9545" rx="36.127" ry="34.9545" transform="matrix(-1 1.4418e-09 -1.48937e-09 1 5301.89 0.0341797)" fill="#D8ACF7"/>
</svg>
