<svg width="295" height="106" viewBox="0 0 295 106" fill="none" xmlns="http://www.w3.org/2000/svg">
<rect width="294" height="106" transform="translate(0.481934)" fill="#F979F8"/>
<path d="M28.2892 66H38.4819L29.9819 53.312L38.4819 40H28.2892L20.4819 53.312L28.2892 66Z" fill="#FDEFF9"/>
<path d="M49.5171 44.5H69.5171V56.5L65.5171 60.5H49.5171V44.5ZM65.5171 54.86V48.5H53.5171V56.5H63.8571L65.5171 54.86ZM71.5093 44.5H91.5093V48.5H75.5093V50.5H91.5093V54.5H77.1493L75.5093 56.16V56.5H91.5093V60.5H71.5093V54.5L75.0093 51H71.5093V44.5ZM105.001 44.5H113.501V48.5H105.501V60.5H101.501V50.16L99.8415 48.5H93.5015V44.5H101.501L105.001 48V44.5ZM115.494 44.5H135.494V48.5H119.494V50.5H135.494V54.5H121.134L119.494 56.16V56.5H135.494V60.5H115.494V54.5L118.994 51H115.494V44.5ZM141.486 50.16V56.5H157.486V60.5H137.486V48.5L141.486 44.5H157.486V48.5H143.126L141.486 50.16ZM170.978 44.5H179.478V48.5H171.478V60.5H167.478V50.16L165.818 48.5H159.478V44.5H167.478L170.978 48V44.5ZM181.47 44.5H201.47V48.5H193.47V56.5H201.47V60.5H181.47V56.5H189.47V48.5H181.47V44.5ZM219.462 44.5H223.462V60.5H215.462L211.462 56.5V50.16L209.802 48.5H207.462V60.5H203.462V44.5H211.462L215.462 48.5V54.86L217.102 56.5H219.462V44.5ZM229.455 44.5H245.455V48.5H231.095L229.455 50.16V56.5H241.455V56.16L239.795 54.5H231.455V50.5H241.455L245.455 54.5V60.5H225.455V48.5L229.455 44.5Z" fill="#FDEFF9"/>
<path d="M266.675 66H256.482L264.982 53.312L256.482 40H266.675L274.482 53.312L266.675 66Z" fill="#FDEFF9"/>
</svg>
